<svg width="50" height="50" viewBox="0 0 50 50" fill="none" xmlns="http://www.w3.org/2000/svg">
<g clip-path="url(#clip0)">
<path d="M22.4453 32.9714L24.9999 35.526L27.5546 32.9714C26.7257 33.1231 25.872 33.2031 24.9999 33.2031C24.1279 33.2031 23.2742 33.1231 22.4453 32.9714Z" fill="#F77E46"/>
<path d="M36.7188 30.2734H34.3959L28.5365 36.1328H37.6954C38.5044 36.1328 39.1602 36.7887 39.1602 37.5977V50H44.5313C45.3403 50 45.9962 49.3441 45.9962 48.5352V39.5508C45.9962 34.4352 41.8344 30.2734 36.7188 30.2734Z" fill="#F77E46"/>
<path d="M15.6042 30.2734H13.2812C8.16572 30.2734 4.00391 34.4353 4.00391 39.5508V48.5352C4.00391 49.3441 4.65977 50 5.46875 50H10.8398V37.5977C10.8398 36.7887 11.4957 36.1328 12.3047 36.1328H21.4636L15.6042 30.2734Z" fill="#F77E46"/>
<path d="M13.2812 11.7188H36.7188C37.5277 11.7188 38.1836 11.0629 38.1836 10.2539C38.1836 9.44492 37.5277 8.78906 36.7188 8.78906H13.2812C12.4723 8.78906 11.8164 9.44492 11.8164 10.2539C11.8164 11.0629 12.4723 11.7188 13.2812 11.7188Z" fill="#F77E46"/>
<path d="M36.2305 4.14252C36.2305 3.64545 35.9791 3.18138 35.5615 2.91176C29.5485 -0.970666 20.4515 -0.970666 14.4385 2.91176C14.0209 3.18138 13.7695 3.64545 13.7695 4.14252V5.85941H36.2305V4.14252Z" fill="#F77E46"/>
<path d="M27.9297 29.8828V26.3672C27.9297 24.7518 26.6154 23.4375 25 23.4375C23.3845 23.4375 22.0703 24.7518 22.0703 26.3672V29.8828C22.0703 29.8835 22.0702 29.8843 22.0702 29.885C23.0047 30.1377 23.9867 30.2734 25 30.2734C26.0132 30.2734 26.9953 30.1377 27.9298 29.885C27.9298 29.8843 27.9297 29.8835 27.9297 29.8828Z" fill="#F77E46"/>
<path d="M10.8398 15.1367C9.22178 15.1367 7.91016 16.4483 7.91016 18.0664C7.91016 19.6845 9.22178 20.9961 10.8398 20.9961H10.977C10.8869 20.3507 10.8398 19.6981 10.8398 19.043V15.1367Z" fill="#F77E46"/>
<path d="M42.0899 18.0664C42.0899 16.4483 40.7783 15.1367 39.1602 15.1367V19.043C39.1602 19.6981 39.1132 20.3507 39.0231 20.9961H39.1602C40.7783 20.9961 42.0899 19.6845 42.0899 18.0664Z" fill="#F77E46"/>
<path d="M36.2305 19.043V14.6484H13.7695V19.043C13.7695 23.0897 15.9214 26.6432 19.1406 28.62V26.3672C19.1406 23.1363 21.7691 20.5078 25 20.5078C28.2309 20.5078 30.8594 23.1363 30.8594 26.3672V28.62C34.0786 26.6432 36.2305 23.0897 36.2305 19.043Z" fill="#F77E46"/>
<path d="M13.7695 50H36.2305V39.0625H13.7695V50ZM19.4336 43.0664H31.1523C31.9613 43.0664 32.6172 43.7223 32.6172 44.5312C32.6172 45.3402 31.9613 45.9961 31.1523 45.9961H19.4336C18.6246 45.9961 17.9688 45.3402 17.9688 44.5312C17.9688 43.7223 18.6246 43.0664 19.4336 43.0664Z" fill="#F77E46"/>
<path d="M44.4846 15.625H50V12.6953H41.4985C42.8173 13.2717 43.8836 14.3196 44.4846 15.625Z" fill="#F77E46"/>
<path d="M41.4985 23.4375H50V20.5078H44.4846C43.8836 21.8132 42.8173 22.8611 41.4985 23.4375Z" fill="#F77E46"/>
<path d="M45.6602 31.25H50V28.3203H41.5017C43.088 28.9985 44.5023 30.0035 45.6602 31.25Z" fill="#F77E46"/>
<path d="M39.1602 4.88281V6.60479C39.6377 6.9252 40.0503 7.33486 40.3707 7.8125H50V4.88281H39.1602Z" fill="#F77E46"/>
<path d="M0 4.88281V7.8125H9.6293C9.94961 7.33486 10.3623 6.9252 10.8398 6.60479V4.88281H0Z" fill="#F77E46"/>
<path d="M8.50146 12.6953H0V15.625H5.51543C6.11641 14.3196 7.18271 13.2717 8.50146 12.6953Z" fill="#F77E46"/>
<path d="M5.51543 20.5078H0V23.4375H8.50146C7.18271 22.8611 6.11641 21.8132 5.51543 20.5078Z" fill="#F77E46"/>
<path d="M8.49824 28.3203H0V31.25H4.33975C5.49766 30.0035 6.91191 28.9985 8.49824 28.3203Z" fill="#F77E46"/>
</g>
<defs>
<clipPath id="clip0">
<rect width="50" height="50" fill="white"/>
</clipPath>
</defs>
</svg>
