<svg width="20" height="20" viewBox="0 0 20 20" fill="none" xmlns="http://www.w3.org/2000/svg">
<path d="M14.9991 0.00416134L12.4056 0C9.49185 0 7.60887 1.9319 7.60887 4.92203V7.19141H5.00119C4.77586 7.19141 4.59338 7.37409 4.59338 7.59943V10.8875C4.59338 11.1128 4.77606 11.2953 5.00119 11.2953H7.60887V19.5922C7.60887 19.8175 7.79134 20 8.01667 20H11.4189C11.6443 20 11.8268 19.8173 11.8268 19.5922V11.2953H14.8757C15.1011 11.2953 15.2835 11.1128 15.2835 10.8875L15.2848 7.59943C15.2848 7.49123 15.2417 7.38762 15.1654 7.31105C15.089 7.23448 14.985 7.19141 14.8768 7.19141H11.8268V5.26763C11.8268 4.34298 12.0471 3.87358 13.2516 3.87358L14.9987 3.87295C15.2238 3.87295 15.4063 3.69027 15.4063 3.46514V0.411972C15.4063 0.187052 15.224 0.00457747 14.9991 0.00416134Z" fill="white"/>
</svg>
