<svg width="50" height="50" viewBox="0 0 50 50" fill="none" xmlns="http://www.w3.org/2000/svg">
<g clip-path="url(#clip0)">
<path d="M25.7384 33.7924V33.5976C24.7428 33.5868 23.7905 33.5327 22.8707 33.457C22.3729 34.7447 21.6695 35.9459 20.793 37.0172C22.4487 37.2878 24.126 37.4393 25.8033 37.4609L25.7384 33.7924Z" fill="#F77E46"/>
<path d="M21.3556 26.6286C20.5548 22.7978 17.7304 19.6813 13.9754 18.5017C12.9365 18.1879 11.8652 18.0256 10.7831 18.0256C8.09935 18.0364 5.50221 19.032 3.52189 20.8283C-0.882435 24.8323 -1.19626 31.6606 2.80767 36.0649C6.8116 40.4692 13.6399 40.7831 18.0443 36.7791C20.2951 34.7339 21.5829 31.8445 21.572 28.8037C21.572 28.0787 21.4963 27.3428 21.3556 26.6286ZM10.7831 27.3537C12.6119 27.3537 14.2243 28.5657 14.7221 30.3295C15.3281 32.5047 14.0728 34.7555 11.8869 35.3723V36.3246C11.8869 36.9198 11.3999 37.4068 10.8047 37.4068C10.2095 37.4068 9.72257 36.9198 9.72257 36.3246V35.3832C7.93703 34.8962 6.70339 33.2838 6.69257 31.4333C6.69257 30.8382 7.17953 30.3512 7.77471 30.3512C8.36989 30.3512 8.85685 30.8382 8.85685 31.4333C8.85685 32.4938 9.72257 33.3487 10.7831 33.3487C11.8436 33.3487 12.6985 32.483 12.6985 31.4225C12.6985 30.362 11.8327 29.5071 10.7722 29.5071C8.92178 29.5071 7.30939 28.2627 6.83325 26.4771C6.25971 24.3128 7.55828 22.062 9.73339 21.4776V21.0123C9.73339 20.4171 10.2204 19.9301 10.8155 19.9301C11.4107 19.9301 11.8977 20.4171 11.8977 21.0123V21.4993C13.6616 21.997 14.8736 23.6094 14.8736 25.4383C14.8736 26.0334 14.3866 26.5204 13.7914 26.5204C13.1962 26.5204 12.7093 26.0334 12.7093 25.4383C12.7093 24.3778 11.8436 23.512 10.7831 23.512C9.72257 23.512 8.86768 24.3669 8.85685 25.4383C8.85685 26.4988 9.72257 27.3537 10.7831 27.3537Z" fill="#F77E46"/>
<path d="M25.7059 31.4225L25.641 27.5917C24.97 27.5809 24.3099 27.5593 23.6823 27.516C23.7148 27.9488 23.7364 28.3709 23.7364 28.7929C23.7364 29.637 23.6498 30.4919 23.4875 31.3251C24.2017 31.3901 24.9484 31.4225 25.7059 31.4225Z" fill="#F77E46"/>
<path d="M37.5554 13.513C36.8087 13.9026 36.0187 14.2164 35.2071 14.4545C32.7723 15.1903 29.58 15.5907 26.247 15.5907C23.0547 15.5907 20.0138 15.2228 17.6656 14.541C16.854 14.3246 16.0748 14.0216 15.3282 13.6429L15.4039 16.6945C16.6267 17.149 17.763 17.7983 18.791 18.6099C18.8235 18.6207 18.8451 18.6207 18.8776 18.6315C20.9553 19.1618 23.5741 19.4431 26.247 19.4431C29.3419 19.4431 32.3827 19.0536 34.5795 18.3935C36.9277 17.6793 37.4472 16.9326 37.4472 16.7919C37.4472 16.6404 37.4363 16.4997 37.5554 16.3482V13.513Z" fill="#F77E46"/>
<path d="M34.5687 9.21691C32.3719 8.54599 29.3311 8.16724 26.2362 8.16724C23.1196 8.16724 20.1978 8.54599 18.0119 9.21691C15.7285 9.90949 15.2308 10.5912 15.2199 10.8077C15.2199 10.8077 15.2308 10.8077 15.2308 10.8293C15.2849 11.0674 15.9341 11.8032 18.2608 12.4742C20.4142 13.1018 23.2494 13.4481 26.2362 13.4481C29.3311 13.4481 32.3611 13.0693 34.5578 12.4092C36.9061 11.7058 37.4363 10.9592 37.4363 10.8077C37.4363 10.667 36.9169 9.93113 34.5687 9.21691Z" fill="#F77E46"/>
<path d="M49.9783 39.1598V35.9134C49.2533 36.2813 48.4958 36.5951 47.7058 36.8332C45.2818 37.5691 42.1112 37.9695 38.7673 37.9695C35.8023 37.9695 32.9129 37.634 30.6404 37.0388C29.7098 36.8008 28.8116 36.4761 27.9459 36.0541L28 39.1923C28 39.2031 28 39.2031 28 39.2139C28 39.3763 28.4762 40.1013 30.7595 40.8047C32.9238 41.4648 35.8456 41.8327 38.9729 41.8327C42.0895 41.8327 45.0221 41.454 47.2081 40.7722C49.4914 40.058 49.9892 39.3113 49.9892 39.1598H49.9783Z" fill="#F77E46"/>
<path d="M37.5338 19.5514C36.7871 19.9301 36.008 20.244 35.1964 20.482C32.7615 21.2179 29.5692 21.6183 26.2254 21.6183C24.5805 21.6183 22.9465 21.5101 21.3233 21.3045C22.1998 22.5165 22.8491 23.88 23.2603 25.33C24.191 25.395 25.1973 25.4383 26.2362 25.4383C26.2687 25.4383 26.312 25.4383 26.3444 25.4383C28.1191 23.4904 32.8914 22.5165 37.5338 22.3866V19.5514Z" fill="#F77E46"/>
<path d="M47.6301 30.849C45.2169 31.5632 42.0787 31.9528 38.789 31.9528C35.5966 31.9528 32.5558 31.5849 30.2076 30.9031C29.396 30.6759 28.606 30.3729 27.8485 29.9941L27.8918 32.4831L27.9026 33.3921C28.7467 34.4417 32.7831 35.7944 38.7781 35.7944C41.9055 35.7944 44.8598 35.4265 47.0782 34.7556C49.4156 34.0413 49.9242 33.3055 49.9242 33.154C49.9242 33.0349 49.9892 32.9051 49.9892 32.7969H50V29.9292C49.2425 30.3079 48.4525 30.6326 47.6301 30.849Z" fill="#F77E46"/>
<path d="M47.1215 25.6006C44.914 24.9297 41.884 24.5726 38.789 24.5726H38.6051C35.7266 24.5726 32.9887 24.8972 30.8894 25.4924C28.6493 26.12 27.881 26.8343 27.7836 27.1264C27.7728 27.1481 27.7728 27.1589 27.7728 27.1697C27.7728 27.1697 27.7728 27.1697 27.7945 27.213C27.8594 27.4403 28.4978 28.1761 30.8245 28.8579C32.9779 29.4747 35.8131 29.821 38.7999 29.821C41.884 29.821 44.8057 29.4639 47.0241 28.8038C49.4265 28.0895 49.9676 27.3429 49.9784 27.1805V27.1697C49.9676 27.0074 49.4265 26.2932 47.1215 25.6006Z" fill="#F77E46"/>
</g>
<defs>
<clipPath id="clip0">
<rect width="50" height="50" fill="white"/>
</clipPath>
</defs>
</svg>
