<svg width="50" height="50" viewBox="0 0 50 50" fill="none" xmlns="http://www.w3.org/2000/svg">
<g clip-path="url(#clip0)">
<path d="M38.6428 21.2604C42.3248 21.2604 45.3097 18.2755 45.3097 14.5935V10.8156C45.3097 7.13361 42.3248 4.14874 38.6428 4.14874C34.9608 4.14874 31.9759 7.13361 31.9759 10.8156V14.5935C31.9759 18.2755 34.9608 21.2604 38.6428 21.2604Z" fill="#F77E46"/>
<path d="M9.90732 8.13683H12.8071C12.8071 9.25236 13.7147 10.16 14.8303 10.16H18.0133V7.21271C18.0133 5.28801 16.4481 3.73039 14.5234 3.73967L8.14834 3.77052C6.24033 3.78468 4.70117 5.33547 4.70117 7.24347V10.1601H7.88418C8.99971 10.16 9.90732 9.25236 9.90732 8.13683Z" fill="#F77E46"/>
<path d="M11.3572 21.2891C15.0333 21.2891 18.0133 18.3091 18.0133 14.6331V13.0599H14.8303C13.4762 13.0599 12.2481 12.5105 11.3572 11.6228C10.4663 12.5106 9.23828 13.0599 7.88418 13.0599H4.70117V14.6331C4.70117 18.309 7.68115 21.2891 11.3572 21.2891Z" fill="#F77E46"/>
<path d="M30.5283 34.1118C29.1286 35.56 27.1683 36.463 25.0001 36.463C22.8318 36.463 20.8715 35.5599 19.4718 34.1118C17.9067 34.9117 16.8345 36.5385 16.8345 38.4168V46.2604H33.1657V38.4168C33.1657 36.5385 32.0934 34.9117 30.5283 34.1118Z" fill="#F77E46"/>
<path d="M17.3068 28.7698V26.0537C17.3068 24.3031 17.8957 22.6881 18.8842 21.3938C18.66 21.3465 18.4299 21.3156 18.1954 21.3004C16.4588 23.0812 14.0351 24.1889 11.3571 24.1889C8.6792 24.1889 6.25547 23.0811 4.51875 21.3003C1.99619 21.4623 0 23.5585 0 26.122V38.9203H13.9346V38.4168C13.9346 35.5285 15.5274 33.0066 17.8798 31.679C17.5115 30.781 17.3068 29.799 17.3068 28.7698Z" fill="#F77E46"/>
<path d="M36.0173 30.203C36.0173 28.064 34.6159 26.2528 32.6813 25.636C32.6887 25.7744 32.693 25.9136 32.693 26.0537V28.7699C32.693 29.7984 32.4892 30.7798 32.121 31.6771C32.9782 32.1595 33.7342 32.8004 34.3502 33.5633H36.0173V30.203Z" fill="#F77E46"/>
<path d="M25.0001 21.2604C22.3593 21.2604 20.2176 23.3961 20.2072 26.0346H29.793C29.7825 23.3961 27.641 21.2604 25.0001 21.2604Z" fill="#F77E46"/>
<path d="M25 33.5632C27.5921 33.5632 29.7024 31.5053 29.7892 28.9343H20.2109C20.2977 31.5053 22.4079 33.5632 25 33.5632Z" fill="#F77E46"/>
<path d="M45.4592 21.2987C43.7227 23.0637 41.3085 24.1602 38.6427 24.1602C37.3767 24.1602 36.1676 23.9125 35.0608 23.4637C35.9696 24.0144 36.7645 24.7603 37.4028 25.6197C38.3935 26.9536 38.9172 28.5385 38.9172 30.2031V36.4631H36.0174H35.8141C35.9774 37.0874 36.0655 37.742 36.0655 38.4169V38.9204H50V26.122C50 23.5511 47.9922 21.4499 45.4592 21.2987Z" fill="#F77E46"/>
</g>
<defs>
<clipPath id="clip0">
<rect width="50" height="50" fill="white"/>
</clipPath>
</defs>
</svg>
