<svg width="20" height="20" viewBox="0 0 20 20" fill="none" xmlns="http://www.w3.org/2000/svg">
<path d="M16.5634 4.9778C16.4922 4.71098 16.3477 4.42669 16.2407 4.17778C14.961 1.10222 12.1647 0 9.90691 0C6.88441 0 3.55547 2.02672 3.11103 6.20426V7.05776C3.11103 7.09338 3.12331 7.41334 3.14075 7.57339C3.38989 9.5643 4.96087 11.6802 6.13414 13.6711C7.39641 15.8042 8.7062 17.9025 10.0039 20C10.804 18.6312 11.6013 17.2445 12.3832 15.9111C12.5963 15.5198 12.8437 15.1288 13.0571 14.7553C13.1992 14.5066 13.4709 14.2579 13.595 14.0266C14.8572 11.7156 16.8889 9.38677 16.8889 7.09333V6.15116C16.889 5.90253 16.5808 5.03141 16.5634 4.9778ZM9.96224 9.26233C9.07378 9.26233 8.10129 8.81808 7.62128 7.5912C7.54977 7.3959 7.55553 7.00452 7.55553 6.96866V6.41755C7.55553 4.8535 8.88355 4.14225 10.0389 4.14225C11.4612 4.14225 12.5612 5.28018 12.5612 6.7025C12.5612 8.12478 11.3846 9.26233 9.96224 9.26233Z" fill="#F77E46"/>
</svg>
