<svg width="185" height="20" viewBox="0 0 185 20" fill="none" xmlns="http://www.w3.org/2000/svg">
<path d="M12.2617 14.5225C12.2617 15.2858 12.1079 15.9694 11.8003 16.5732C11.4927 17.1771 11.0825 17.6898 10.5698 18.1113C10.0685 18.5329 9.48747 18.8576 8.82666 19.0854C8.16585 19.3133 7.48226 19.4272 6.77588 19.4272C6.30876 19.4272 5.84163 19.3703 5.37451 19.2563C4.90739 19.1538 4.46305 19.0399 4.0415 18.9146C3.63135 18.7892 3.25537 18.6753 2.91357 18.5728C2.57178 18.4588 2.29264 18.4019 2.07617 18.4019C1.93945 18.4019 1.81982 18.436 1.71729 18.5044C1.62614 18.5614 1.54639 18.6411 1.47803 18.7437C1.42106 18.8462 1.37549 18.9544 1.34131 19.0684C1.31852 19.1937 1.29574 19.3133 1.27295 19.4272H0.811523V13.3945H1.27295C1.3641 14.1351 1.54069 14.813 1.80273 15.4282C2.06478 16.0435 2.41227 16.5732 2.84521 17.0176C3.27816 17.4505 3.79655 17.7923 4.40039 18.043C5.01562 18.2822 5.71061 18.4019 6.48535 18.4019C6.9069 18.4019 7.32275 18.3449 7.73291 18.231C8.15446 18.1056 8.52474 17.9233 8.84375 17.6841C9.17415 17.4448 9.44189 17.1486 9.64697 16.7954C9.85205 16.4308 9.95459 16.0093 9.95459 15.5308C9.95459 15.0295 9.81787 14.5794 9.54443 14.1807C9.28239 13.7705 8.9349 13.3945 8.50195 13.0527C8.06901 12.6995 7.5734 12.3691 7.01514 12.0615C6.45687 11.7425 5.88721 11.4235 5.30615 11.1045C4.73649 10.7855 4.17253 10.4494 3.61426 10.0962C3.05599 9.743 2.56038 9.35563 2.12744 8.93408C1.6945 8.50114 1.34131 8.02832 1.06787 7.51562C0.805827 6.99154 0.674805 6.39909 0.674805 5.73828C0.674805 5.02051 0.811523 4.37679 1.08496 3.80713C1.36979 3.23747 1.74577 2.75895 2.21289 2.37158C2.68001 1.97282 3.21549 1.6709 3.81934 1.46582C4.43457 1.26074 5.07829 1.1582 5.75049 1.1582C6.14925 1.1582 6.54232 1.20947 6.92969 1.31201C7.32845 1.41455 7.70443 1.52848 8.05762 1.65381C8.4222 1.76774 8.7526 1.87598 9.04883 1.97852C9.34505 2.08105 9.59001 2.13232 9.78369 2.13232C9.92041 2.13232 10.0343 2.09814 10.1255 2.02979C10.2166 1.96143 10.2964 1.88167 10.3647 1.79053C10.4331 1.68799 10.4844 1.57975 10.5186 1.46582C10.5641 1.35189 10.5983 1.24935 10.6211 1.1582H11.1167V7.17383H10.6211C10.5641 6.49023 10.416 5.84652 10.1768 5.24268C9.9375 4.62744 9.61279 4.09766 9.20264 3.65332C8.80387 3.19759 8.31966 2.8387 7.75 2.57666C7.18034 2.30322 6.52523 2.1665 5.78467 2.1665C5.3973 2.1665 5.02132 2.22917 4.65674 2.35449C4.29215 2.47982 3.96175 2.66211 3.66553 2.90137C3.3807 3.12923 3.14714 3.40837 2.96484 3.73877C2.79395 4.05778 2.7085 4.42236 2.7085 4.83252C2.7085 5.31104 2.84521 5.74398 3.11865 6.13135C3.39209 6.51872 3.75098 6.8776 4.19531 7.20801C4.65104 7.53841 5.16374 7.85742 5.7334 8.16504C6.30306 8.46126 6.88411 8.76888 7.47656 9.08789C8.0804 9.39551 8.66715 9.72591 9.23682 10.0791C9.80648 10.4323 10.3135 10.8254 10.7578 11.2583C11.2135 11.6912 11.5781 12.1755 11.8516 12.7109C12.125 13.235 12.2617 13.8389 12.2617 14.5225ZM25.3525 17.291C25.193 17.5075 25.0107 17.7354 24.8057 17.9746C24.612 18.2025 24.3955 18.4132 24.1562 18.6069C23.9284 18.7892 23.6777 18.9373 23.4043 19.0513C23.1309 19.1766 22.846 19.2393 22.5498 19.2393C22.2764 19.2393 22.0485 19.1823 21.8662 19.0684C21.6953 18.9544 21.5586 18.8063 21.4561 18.624C21.3535 18.4303 21.2795 18.2196 21.2339 17.9917C21.1997 17.7638 21.1826 17.5303 21.1826 17.291C20.8978 17.5189 20.613 17.7467 20.3281 17.9746C20.0433 18.2025 19.7471 18.4132 19.4395 18.6069C19.1318 18.7892 18.8128 18.9373 18.4824 19.0513C18.152 19.1766 17.7931 19.2393 17.4058 19.2393C16.9614 19.2393 16.5627 19.1595 16.2095 19C15.8677 18.8519 15.5771 18.6411 15.3379 18.3677C15.0986 18.0942 14.9163 17.7752 14.791 17.4106C14.6657 17.0347 14.603 16.6302 14.603 16.1973C14.603 15.7188 14.7113 15.2801 14.9277 14.8813C15.1556 14.4826 15.4518 14.118 15.8164 13.7876C16.181 13.4572 16.5968 13.161 17.064 12.8989C17.5311 12.6255 18.0096 12.3862 18.4995 12.1812C18.9894 11.9647 19.4679 11.7767 19.9351 11.6172C20.4022 11.4577 20.818 11.3153 21.1826 11.1899V10.7114C21.1826 10.3127 21.1541 9.93099 21.0972 9.56641C21.0516 9.19043 20.9491 8.86003 20.7896 8.5752C20.63 8.27897 20.4079 8.04541 20.123 7.87451C19.8382 7.70361 19.4565 7.61816 18.978 7.61816C18.5907 7.61816 18.2773 7.67513 18.0381 7.78906C17.8102 7.8916 17.6336 8.04541 17.5083 8.25049C17.3944 8.44417 17.3203 8.67773 17.2861 8.95117C17.252 9.21322 17.2349 9.50374 17.2349 9.82275C17.2349 10.2101 17.1608 10.512 17.0127 10.7285C16.8646 10.945 16.5741 11.0532 16.1411 11.0532C15.7424 11.0532 15.4632 10.9393 15.3037 10.7114C15.1442 10.4836 15.0645 10.1873 15.0645 9.82275C15.0645 9.28727 15.2069 8.83154 15.4917 8.45557C15.7765 8.07959 16.1297 7.77197 16.5513 7.53271C16.9842 7.29346 17.4513 7.12256 17.9526 7.02002C18.4539 6.90609 18.9268 6.84912 19.3711 6.84912C20.1117 6.84912 20.7326 6.92318 21.2339 7.07129C21.7466 7.20801 22.1567 7.44157 22.4644 7.77197C22.772 8.09098 22.9884 8.50684 23.1138 9.01953C23.2505 9.52083 23.3188 10.1418 23.3188 10.8823V14.8984C23.3188 15.2288 23.3132 15.5763 23.3018 15.9409C23.3018 16.3055 23.3302 16.6473 23.3872 16.9663C23.4214 17.1258 23.4727 17.2739 23.541 17.4106C23.6208 17.536 23.7575 17.5986 23.9512 17.5986C24.0537 17.5986 24.1676 17.5588 24.293 17.479C24.4297 17.3879 24.5664 17.2853 24.7031 17.1714C24.8398 17.0575 24.9652 16.9435 25.0791 16.8296C25.2044 16.7043 25.2956 16.6131 25.3525 16.5562V17.291ZM21.1826 11.9248C20.7952 12.0843 20.3452 12.2723 19.8325 12.4888C19.3198 12.6938 18.8356 12.9445 18.3799 13.2407C17.9355 13.5256 17.5539 13.8617 17.2349 14.249C16.9272 14.6364 16.7734 15.0864 16.7734 15.5991C16.7734 15.8498 16.8133 16.1061 16.8931 16.3682C16.9728 16.6188 17.0924 16.8467 17.252 17.0518C17.4115 17.2568 17.6051 17.422 17.833 17.5474C18.0609 17.6727 18.3172 17.7354 18.6021 17.7354C18.8299 17.7354 19.0578 17.6955 19.2856 17.6157C19.5249 17.536 19.7528 17.4334 19.9692 17.3081C20.1971 17.1714 20.4136 17.029 20.6187 16.8809C20.8237 16.7214 21.0117 16.5732 21.1826 16.4365V11.9248ZM39.9814 19V18.5044C40.4372 18.5044 40.7904 18.4702 41.041 18.4019C41.3031 18.3335 41.491 18.2139 41.605 18.043C41.7303 17.8721 41.8044 17.6499 41.8271 17.3765C41.8613 17.0916 41.8784 16.7441 41.8784 16.334V11.2241C41.8784 10.8937 41.8499 10.5633 41.793 10.2329C41.7474 9.89111 41.6506 9.5835 41.5024 9.31006C41.3657 9.03662 41.1663 8.81445 40.9043 8.64355C40.6536 8.47266 40.3232 8.38721 39.9131 8.38721C39.6169 8.38721 39.3263 8.43278 39.0415 8.52393C38.7681 8.61507 38.5003 8.7404 38.2383 8.8999C37.9876 9.04801 37.7484 9.21891 37.5205 9.4126C37.2926 9.60628 37.0762 9.80566 36.8711 10.0107V16.334C36.8711 16.7441 36.8882 17.0916 36.9224 17.3765C36.9565 17.6499 37.0363 17.8721 37.1616 18.043C37.2869 18.2139 37.4749 18.3335 37.7256 18.4019C37.9876 18.4702 38.3408 18.5044 38.7852 18.5044V19H32.8037V18.5044C33.2708 18.5044 33.6297 18.4702 33.8804 18.4019C34.1424 18.3335 34.3361 18.2196 34.4614 18.0601C34.5868 17.8892 34.6608 17.667 34.6836 17.3936C34.7178 17.1087 34.7349 16.7555 34.7349 16.334V11.2241C34.7349 10.8823 34.7064 10.5405 34.6494 10.1987C34.5924 9.85693 34.4899 9.54932 34.3418 9.27588C34.2051 9.00244 34.0057 8.78027 33.7437 8.60938C33.4816 8.43848 33.1455 8.35303 32.7354 8.35303C32.4277 8.35303 32.1315 8.4043 31.8467 8.50684C31.5732 8.59798 31.3055 8.72331 31.0435 8.88281C30.7928 9.03092 30.5535 9.20752 30.3257 9.4126C30.1092 9.60628 29.8984 9.80566 29.6934 10.0107V16.334C29.6934 16.7441 29.7104 17.0916 29.7446 17.3765C29.7788 17.6499 29.8586 17.8721 29.9839 18.043C30.1092 18.2139 30.3029 18.3335 30.5649 18.4019C30.827 18.4702 31.1802 18.5044 31.6245 18.5044V19H25.7798V18.5044C26.2013 18.5044 26.526 18.4645 26.7539 18.3848C26.9932 18.2936 27.1698 18.1626 27.2837 17.9917C27.409 17.8094 27.4831 17.5815 27.5059 17.3081C27.54 17.0347 27.5571 16.71 27.5571 16.334V11.5488C27.5571 11.3779 27.5628 11.1273 27.5742 10.7969C27.5856 10.4551 27.5685 10.119 27.5229 9.78857C27.4888 9.44678 27.4033 9.15625 27.2666 8.91699C27.1413 8.66634 26.9362 8.54102 26.6514 8.54102C26.5033 8.54102 26.3551 8.5638 26.207 8.60938C26.0589 8.64355 25.9165 8.68913 25.7798 8.74609L25.5576 8.28467L29.1294 6.84912H29.6934V9.34424C29.9668 9.04801 30.2516 8.75179 30.5479 8.45557C30.8555 8.15934 31.1745 7.8916 31.5049 7.65234C31.8353 7.41309 32.1885 7.2194 32.5645 7.07129C32.9404 6.92318 33.3506 6.84912 33.7949 6.84912C34.638 6.84912 35.2988 7.07129 35.7773 7.51562C36.2673 7.94857 36.609 8.55811 36.8027 9.34424C37.0762 9.02523 37.3553 8.71761 37.6401 8.42139C37.9364 8.12516 38.2497 7.86312 38.5801 7.63525C38.9105 7.396 39.2694 7.20801 39.6567 7.07129C40.0441 6.92318 40.4657 6.84912 40.9214 6.84912C41.5594 6.84912 42.0835 6.98014 42.4937 7.24219C42.9038 7.49284 43.2228 7.82324 43.4507 8.2334C43.6785 8.64355 43.8324 9.11068 43.9121 9.63477C44.0033 10.1589 44.0488 10.6886 44.0488 11.2241V16.334C44.0488 16.6986 44.0659 17.0176 44.1001 17.291C44.1343 17.5645 44.2083 17.7923 44.3223 17.9746C44.4476 18.1455 44.6242 18.2765 44.8521 18.3677C45.0913 18.4588 45.416 18.5044 45.8262 18.5044V19H39.9814ZM55.2769 16.0264C55.2769 16.5391 55.1572 17.0005 54.918 17.4106C54.6787 17.8208 54.3711 18.174 53.9951 18.4702C53.6191 18.7664 53.1919 18.9943 52.7134 19.1538C52.2463 19.3133 51.7791 19.3931 51.312 19.3931C51.0386 19.3931 50.7537 19.3475 50.4575 19.2563C50.1727 19.1766 49.8936 19.0854 49.6201 18.9829C49.3467 18.8804 49.0846 18.7892 48.834 18.7095C48.5947 18.6183 48.3726 18.5728 48.1675 18.5728C48.1219 18.5728 48.0706 18.6012 48.0137 18.6582C47.9681 18.7038 47.9225 18.7607 47.877 18.8291C47.8428 18.8861 47.8086 18.9487 47.7744 19.0171C47.7516 19.0854 47.7288 19.1367 47.7061 19.1709H47.2617V14.9668H47.7061C47.7972 15.4339 47.9396 15.884 48.1333 16.3169C48.327 16.7498 48.5719 17.1372 48.8682 17.479C49.1758 17.8094 49.529 18.0771 49.9277 18.2822C50.3379 18.4759 50.7993 18.5728 51.312 18.5728C51.5741 18.5728 51.8247 18.5386 52.064 18.4702C52.3146 18.3905 52.5311 18.2765 52.7134 18.1284C52.9071 17.9803 53.0609 17.798 53.1748 17.5815C53.2887 17.3651 53.3457 17.1144 53.3457 16.8296C53.3457 16.2827 53.1919 15.827 52.8843 15.4624C52.5881 15.0864 52.2121 14.756 51.7563 14.4712C51.3006 14.1864 50.8107 13.9186 50.2866 13.668C49.7625 13.4059 49.2726 13.1154 48.8169 12.7964C48.3612 12.466 47.9795 12.0843 47.6719 11.6514C47.3757 11.207 47.2275 10.6602 47.2275 10.0107C47.2275 9.46387 47.3358 8.99674 47.5522 8.60938C47.7687 8.21061 48.0535 7.88021 48.4067 7.61816C48.7599 7.35612 49.1644 7.16243 49.6201 7.03711C50.0872 6.91178 50.5601 6.84912 51.0386 6.84912C51.2664 6.84912 51.4886 6.87191 51.7051 6.91748C51.9215 6.96305 52.138 7.02002 52.3545 7.08838C52.571 7.14535 52.7817 7.19661 52.9868 7.24219C53.2033 7.28776 53.4198 7.31055 53.6362 7.31055C53.7729 7.31055 53.8812 7.26497 53.9609 7.17383C54.0521 7.08268 54.1261 6.97445 54.1831 6.84912H54.6445V10.8823H54.1831C54.092 10.4608 53.9609 10.0563 53.79 9.66895C53.6305 9.27018 53.4255 8.91699 53.1748 8.60938C52.9242 8.30176 52.6165 8.0568 52.252 7.87451C51.8988 7.68083 51.4829 7.58398 51.0044 7.58398C50.7537 7.58398 50.4917 7.60677 50.2183 7.65234C49.9562 7.69792 49.7113 7.77767 49.4834 7.8916C49.2669 8.00553 49.0846 8.16504 48.9365 8.37012C48.7998 8.5752 48.7314 8.84294 48.7314 9.17334C48.7314 9.743 48.891 10.2101 49.21 10.5747C49.5404 10.9279 49.9448 11.2412 50.4233 11.5146C50.9132 11.7767 51.4373 12.0273 51.9956 12.2666C52.5653 12.5059 53.0894 12.785 53.5679 13.104C54.0578 13.4116 54.4622 13.799 54.7812 14.2661C55.1117 14.7218 55.2769 15.3086 55.2769 16.0264ZM68.5044 12.8818C68.5044 13.7363 68.3677 14.5566 68.0942 15.3428C67.8322 16.1289 67.4505 16.8239 66.9492 17.4277C66.4479 18.0202 65.8384 18.4987 65.1206 18.8633C64.4028 19.2165 63.5939 19.3931 62.6938 19.3931C61.8394 19.3931 61.0646 19.2222 60.3696 18.8804C59.686 18.5272 59.0993 18.0658 58.6094 17.4961C58.1309 16.9264 57.7549 16.2713 57.4814 15.5308C57.2194 14.7902 57.0884 14.0212 57.0884 13.2236C57.0884 12.3919 57.2194 11.5944 57.4814 10.8311C57.7549 10.0563 58.1423 9.37842 58.6436 8.79736C59.1449 8.20492 59.7487 7.7321 60.4551 7.37891C61.1615 7.02572 61.9533 6.84912 62.8306 6.84912C63.6851 6.84912 64.4598 7.00863 65.1548 7.32764C65.8612 7.63525 66.4593 8.0625 66.9492 8.60938C67.4505 9.15625 67.8322 9.79997 68.0942 10.5405C68.3677 11.2697 68.5044 12.0501 68.5044 12.8818ZM66.0947 13.8901C66.0947 13.5142 66.0719 13.0983 66.0264 12.6426C65.9808 12.1868 65.901 11.7311 65.7871 11.2754C65.6732 10.8083 65.5251 10.3639 65.3428 9.94238C65.1605 9.50944 64.9326 9.12777 64.6592 8.79736C64.3857 8.45557 64.061 8.18783 63.6851 7.99414C63.3205 7.78906 62.8932 7.68652 62.4033 7.68652C61.8223 7.68652 61.3438 7.83464 60.9678 8.13086C60.5918 8.41569 60.2956 8.78027 60.0791 9.22461C59.8626 9.65755 59.7145 10.1361 59.6348 10.6602C59.555 11.1842 59.5151 11.6799 59.5151 12.147C59.5151 12.5229 59.5379 12.9388 59.5835 13.3945C59.6405 13.8503 59.7259 14.3117 59.8398 14.7788C59.9538 15.2459 60.1019 15.7017 60.2842 16.146C60.4779 16.5789 60.7114 16.9663 60.9849 17.3081C61.2583 17.6499 61.5773 17.9233 61.9419 18.1284C62.3179 18.3335 62.7451 18.436 63.2236 18.436C63.8389 18.436 64.3345 18.2936 64.7104 18.0088C65.0864 17.7126 65.377 17.3423 65.582 16.8979C65.7871 16.4422 65.9238 15.9466 65.9922 15.4111C66.0605 14.8757 66.0947 14.3687 66.0947 13.8901ZM76.6562 19V18.5044C77.1006 18.5044 77.4481 18.4702 77.6987 18.4019C77.9608 18.3335 78.1545 18.2196 78.2798 18.0601C78.4165 17.8892 78.502 17.667 78.5361 17.3936C78.5703 17.1087 78.5874 16.7555 78.5874 16.334V11.5146C78.5874 11.1842 78.5703 10.8368 78.5361 10.4722C78.5133 10.1076 78.4393 9.77718 78.314 9.48096C78.1886 9.17334 78.0007 8.92269 77.75 8.729C77.4993 8.53532 77.1576 8.43848 76.7246 8.43848C76.417 8.43848 76.1208 8.48975 75.8359 8.59229C75.5511 8.68343 75.2777 8.80876 75.0156 8.96826C74.765 9.11637 74.5257 9.29297 74.2979 9.49805C74.0814 9.70312 73.8763 9.9082 73.6826 10.1133V16.334C73.6826 16.7441 73.6997 17.0916 73.7339 17.3765C73.7681 17.6499 73.8478 17.8721 73.9731 18.043C74.0985 18.2139 74.2865 18.3335 74.5371 18.4019C74.7992 18.4702 75.1523 18.5044 75.5967 18.5044V19H69.7178V18.5044C70.1507 18.5044 70.4868 18.4645 70.7261 18.3848C70.9653 18.2936 71.1419 18.1626 71.2559 17.9917C71.3812 17.8094 71.4552 17.5815 71.478 17.3081C71.5008 17.0347 71.5122 16.71 71.5122 16.334V11.9248C71.5122 11.7425 71.5179 11.4634 71.5293 11.0874C71.5407 10.7114 71.5236 10.3354 71.478 9.95947C71.4438 9.5835 71.3584 9.25309 71.2217 8.96826C71.0964 8.68343 70.8913 8.54102 70.6064 8.54102C70.4583 8.54102 70.3102 8.5638 70.1621 8.60938C70.014 8.64355 69.8659 8.68913 69.7178 8.74609L69.5469 8.28467L73.1528 6.84912H73.6826V9.34424C73.9219 9.04801 74.1839 8.75179 74.4688 8.45557C74.765 8.15934 75.0783 7.8916 75.4087 7.65234C75.7391 7.41309 76.0923 7.2194 76.4683 7.07129C76.8442 6.92318 77.2316 6.84912 77.6304 6.84912C78.2684 6.84912 78.7868 6.98014 79.1855 7.24219C79.5957 7.50423 79.9147 7.85173 80.1426 8.28467C80.3704 8.70622 80.5243 9.17904 80.604 9.70312C80.6838 10.2272 80.7236 10.757 80.7236 11.2925V16.334C80.7236 16.71 80.7407 17.0347 80.7749 17.3081C80.8091 17.5815 80.8831 17.8094 80.9971 17.9917C81.1224 18.1626 81.3104 18.2936 81.561 18.3848C81.8117 18.4645 82.1478 18.5044 82.5693 18.5044V19H76.6562ZM137.77 9.94238C137.291 9.94238 136.921 9.99935 136.659 10.1133C136.397 10.2272 136.203 10.3924 136.078 10.6089C135.952 10.8254 135.873 11.0931 135.838 11.4121C135.816 11.7311 135.804 12.09 135.804 12.4888V17.8379C134.87 18.3848 133.879 18.7835 132.831 19.0342C131.794 19.2962 130.729 19.4272 129.635 19.4272C128.302 19.4272 127.049 19.2279 125.875 18.8291C124.701 18.4303 123.676 17.8493 122.799 17.0859C121.933 16.3226 121.244 15.394 120.731 14.3003C120.23 13.1951 119.979 11.9362 119.979 10.5234C119.979 9.22461 120.213 8.00553 120.68 6.86621C121.158 5.72689 121.813 4.73568 122.645 3.89258C123.477 3.03809 124.457 2.37158 125.584 1.89307C126.724 1.40316 127.949 1.1582 129.259 1.1582C129.828 1.1582 130.387 1.20378 130.934 1.29492C131.492 1.37467 132.044 1.51139 132.591 1.70508C132.614 1.70508 132.705 1.73356 132.865 1.79053C133.024 1.84749 133.195 1.91016 133.377 1.97852C133.571 2.03548 133.748 2.09245 133.907 2.14941C134.067 2.20638 134.152 2.23486 134.164 2.23486C134.289 2.23486 134.391 2.19499 134.471 2.11523C134.551 2.02409 134.614 1.92155 134.659 1.80762C134.716 1.69368 134.756 1.57975 134.779 1.46582C134.802 1.34049 134.819 1.23796 134.83 1.1582H135.274L135.736 6.64404H135.274C135.047 5.93766 134.762 5.30534 134.42 4.74707C134.078 4.17741 133.674 3.6932 133.207 3.29443C132.739 2.88428 132.198 2.57096 131.583 2.35449C130.968 2.13802 130.273 2.02979 129.498 2.02979C128.359 2.02979 127.379 2.25195 126.559 2.69629C125.738 3.14062 125.06 3.73307 124.525 4.47363C123.989 5.21419 123.591 6.06299 123.329 7.02002C123.078 7.97705 122.953 8.96257 122.953 9.97656C122.953 10.9906 123.084 12.0046 123.346 13.0186C123.619 14.0326 124.029 14.9497 124.576 15.77C125.134 16.5789 125.835 17.2397 126.678 17.7524C127.521 18.2537 128.524 18.5044 129.686 18.5044C130.313 18.5044 130.928 18.4303 131.532 18.2822C132.147 18.1227 132.728 17.8835 133.275 17.5645V12.4888C133.275 12.0103 133.252 11.6115 133.207 11.2925C133.161 10.9735 133.058 10.7171 132.899 10.5234C132.739 10.3298 132.512 10.1873 132.215 10.0962C131.919 10.005 131.515 9.95378 131.002 9.94238V9.48096H137.77V9.94238ZM147.101 8.28467C147.101 8.60368 146.981 8.88281 146.742 9.12207C146.514 9.36133 146.24 9.48096 145.921 9.48096C145.728 9.48096 145.545 9.43538 145.375 9.34424C145.215 9.2417 145.056 9.13916 144.896 9.03662C144.748 8.92269 144.605 8.82015 144.469 8.729C144.343 8.62646 144.218 8.5752 144.093 8.5752C143.922 8.5752 143.745 8.66064 143.563 8.83154C143.392 8.99105 143.227 9.18473 143.067 9.4126C142.919 9.62907 142.783 9.84554 142.657 10.062C142.532 10.2785 142.441 10.4437 142.384 10.5576V16.2656C142.384 17.0176 142.526 17.5815 142.811 17.9575C143.096 18.3221 143.643 18.5044 144.452 18.5044V19H138.351V18.5044C138.795 18.5044 139.137 18.4702 139.376 18.4019C139.627 18.3335 139.815 18.2139 139.94 18.043C140.065 17.8721 140.139 17.6499 140.162 17.3765C140.196 17.0916 140.213 16.7441 140.213 16.334V11.583C140.213 11.4463 140.208 11.2412 140.196 10.9678C140.196 10.6943 140.185 10.4095 140.162 10.1133C140.139 9.81706 140.099 9.53792 140.042 9.27588C139.997 9.01383 139.923 8.82585 139.82 8.71191C139.638 8.62077 139.416 8.5752 139.154 8.5752C138.903 8.5752 138.635 8.63216 138.351 8.74609L138.214 8.28467L141.854 6.84912H142.384V9.51514C142.532 9.2417 142.708 8.95117 142.914 8.64355C143.119 8.33594 143.347 8.05111 143.597 7.78906C143.859 7.51562 144.138 7.29346 144.435 7.12256C144.742 6.94027 145.073 6.84912 145.426 6.84912C145.631 6.84912 145.836 6.8833 146.041 6.95166C146.246 7.00863 146.423 7.09977 146.571 7.2251C146.73 7.35042 146.856 7.50423 146.947 7.68652C147.049 7.85742 147.101 8.0568 147.101 8.28467ZM158.089 14.6934C158.01 15.3086 157.833 15.901 157.56 16.4707C157.286 17.029 156.939 17.5246 156.517 17.9575C156.096 18.3905 155.606 18.738 155.047 19C154.5 19.262 153.902 19.3931 153.253 19.3931C152.41 19.3931 151.664 19.2165 151.014 18.8633C150.376 18.5101 149.841 18.043 149.408 17.4619C148.975 16.8809 148.65 16.2201 148.434 15.4795C148.217 14.7389 148.109 13.987 148.109 13.2236C148.109 12.3691 148.217 11.5602 148.434 10.7969C148.661 10.0221 148.998 9.34424 149.442 8.76318C149.898 8.18213 150.467 7.7207 151.151 7.37891C151.846 7.02572 152.655 6.84912 153.578 6.84912C154.284 6.84912 154.916 6.96875 155.475 7.20801C156.033 7.44727 156.506 7.78337 156.893 8.21631C157.28 8.63786 157.577 9.14486 157.782 9.7373C157.987 10.3184 158.089 10.9564 158.089 11.6514H149.938C149.938 12.2894 150.023 12.9388 150.194 13.5996C150.365 14.2604 150.627 14.8643 150.98 15.4111C151.333 15.9466 151.778 16.391 152.313 16.7441C152.86 17.0859 153.504 17.2568 154.244 17.2568C154.7 17.2568 155.104 17.1885 155.458 17.0518C155.822 16.9036 156.141 16.7043 156.415 16.4536C156.699 16.1916 156.944 15.8896 157.149 15.5479C157.366 15.1947 157.548 14.8187 157.696 14.4199L158.089 14.6934ZM155.389 10.9165C155.389 10.5177 155.338 10.1304 155.235 9.75439C155.144 9.37842 154.99 9.04801 154.774 8.76318C154.569 8.46696 154.307 8.2277 153.988 8.04541C153.669 7.86312 153.287 7.77197 152.843 7.77197C152.398 7.77197 152.005 7.86312 151.664 8.04541C151.322 8.21631 151.026 8.44987 150.775 8.74609C150.536 9.03092 150.342 9.36702 150.194 9.75439C150.057 10.1304 149.972 10.5177 149.938 10.9165H155.389ZM166.207 16.8296C166.116 17.1486 165.979 17.4619 165.797 17.7695C165.615 18.0771 165.392 18.3506 165.13 18.5898C164.88 18.8291 164.595 19.0228 164.276 19.1709C163.968 19.319 163.632 19.3931 163.268 19.3931C162.812 19.3931 162.43 19.3019 162.123 19.1196C161.826 18.9487 161.587 18.7209 161.405 18.436C161.222 18.1398 161.097 17.8037 161.029 17.4277C160.96 17.0518 160.926 16.6644 160.926 16.2656V8.07959H159.063V7.68652C159.508 7.51562 159.912 7.27067 160.277 6.95166C160.653 6.63265 160.989 6.27376 161.285 5.875C161.593 5.46484 161.861 5.0376 162.088 4.59326C162.328 4.14893 162.533 3.72168 162.704 3.31152H163.097V7.20801H165.865V8.07959H163.097V15.958C163.097 16.1517 163.108 16.3625 163.131 16.5903C163.165 16.8182 163.222 17.0347 163.302 17.2397C163.382 17.4334 163.495 17.5986 163.644 17.7354C163.803 17.8607 164.002 17.9233 164.242 17.9233C164.629 17.9233 164.937 17.8265 165.165 17.6328C165.392 17.4277 165.575 17.16 165.711 16.8296H166.207ZM177.162 14.6934C177.082 15.3086 176.905 15.901 176.632 16.4707C176.358 17.029 176.011 17.5246 175.589 17.9575C175.168 18.3905 174.678 18.738 174.12 19C173.573 19.262 172.975 19.3931 172.325 19.3931C171.482 19.3931 170.736 19.2165 170.086 18.8633C169.448 18.5101 168.913 18.043 168.48 17.4619C168.047 16.8809 167.722 16.2201 167.506 15.4795C167.289 14.7389 167.181 13.987 167.181 13.2236C167.181 12.3691 167.289 11.5602 167.506 10.7969C167.734 10.0221 168.07 9.34424 168.514 8.76318C168.97 8.18213 169.54 7.7207 170.223 7.37891C170.918 7.02572 171.727 6.84912 172.65 6.84912C173.356 6.84912 173.989 6.96875 174.547 7.20801C175.105 7.44727 175.578 7.78337 175.965 8.21631C176.353 8.63786 176.649 9.14486 176.854 9.7373C177.059 10.3184 177.162 10.9564 177.162 11.6514H169.01C169.01 12.2894 169.095 12.9388 169.266 13.5996C169.437 14.2604 169.699 14.8643 170.052 15.4111C170.405 15.9466 170.85 16.391 171.385 16.7441C171.932 17.0859 172.576 17.2568 173.316 17.2568C173.772 17.2568 174.177 17.1885 174.53 17.0518C174.894 16.9036 175.213 16.7043 175.487 16.4536C175.772 16.1916 176.017 15.8896 176.222 15.5479C176.438 15.1947 176.62 14.8187 176.769 14.4199L177.162 14.6934ZM174.461 10.9165C174.461 10.5177 174.41 10.1304 174.308 9.75439C174.216 9.37842 174.063 9.04801 173.846 8.76318C173.641 8.46696 173.379 8.2277 173.06 8.04541C172.741 7.86312 172.359 7.77197 171.915 7.77197C171.471 7.77197 171.078 7.86312 170.736 8.04541C170.394 8.21631 170.098 8.44987 169.847 8.74609C169.608 9.03092 169.414 9.36702 169.266 9.75439C169.129 10.1304 169.044 10.5177 169.01 10.9165H174.461ZM178.905 19V18.5044C179.315 18.5044 179.634 18.4588 179.862 18.3677C180.101 18.2651 180.278 18.1227 180.392 17.9404C180.517 17.7581 180.591 17.536 180.614 17.2739C180.648 17.0005 180.665 16.6872 180.665 16.334V5.34521C180.665 5.14014 180.671 4.8724 180.682 4.54199C180.705 4.21159 180.694 3.88688 180.648 3.56787C180.602 3.23747 180.511 2.95833 180.375 2.73047C180.238 2.49121 180.016 2.37158 179.708 2.37158C179.571 2.37158 179.44 2.38867 179.315 2.42285C179.19 2.44564 179.053 2.48551 178.905 2.54248L178.7 2.09814L182.237 0.696777H182.801V16.334C182.801 16.7327 182.818 17.0688 182.853 17.3423C182.898 17.6157 182.984 17.8379 183.109 18.0088C183.246 18.1797 183.439 18.305 183.69 18.3848C183.952 18.4645 184.294 18.5044 184.715 18.5044V19H178.905Z" fill="#202020"/>
<path d="M110.272 15.8555C110.169 16.3568 110.004 16.8296 109.776 17.2739C109.549 17.7069 109.269 18.0828 108.939 18.4019C108.609 18.7209 108.221 18.9715 107.777 19.1538C107.344 19.3361 106.86 19.4272 106.324 19.4272C105.868 19.4272 105.43 19.3532 105.008 19.2051C104.587 19.0684 104.182 18.8804 103.795 18.6411C103.419 18.4019 103.06 18.1341 102.718 17.8379C102.376 17.5303 102.057 17.217 101.761 16.8979C101.34 17.2625 100.918 17.6043 100.497 17.9233C100.086 18.231 99.6592 18.4987 99.2148 18.7266C98.7705 18.943 98.2977 19.1139 97.7964 19.2393C97.2951 19.3646 96.7539 19.4272 96.1729 19.4272C95.5918 19.4272 95.0221 19.3418 94.4639 19.1709C93.917 19.0114 93.4271 18.7721 92.9941 18.4531C92.5612 18.1227 92.208 17.7126 91.9346 17.2227C91.6725 16.7327 91.5415 16.1688 91.5415 15.5308C91.5415 14.7902 91.7067 14.1066 92.0371 13.48C92.3789 12.842 92.8062 12.2609 93.3188 11.7368C93.8429 11.2127 94.424 10.7456 95.062 10.3354C95.7 9.9139 96.3153 9.54932 96.9077 9.2417C96.6229 8.66064 96.3665 8.03402 96.1387 7.36182C95.9222 6.68962 95.814 6.02881 95.814 5.37939C95.814 4.72998 95.9279 4.14323 96.1558 3.61914C96.3836 3.09505 96.6969 2.65072 97.0957 2.28613C97.4945 1.92155 97.9673 1.64242 98.5142 1.44873C99.061 1.25505 99.6535 1.1582 100.292 1.1582C100.77 1.1582 101.22 1.22656 101.642 1.36328C102.063 1.5 102.433 1.69938 102.752 1.96143C103.071 2.22347 103.322 2.54818 103.504 2.93555C103.698 3.32292 103.795 3.76725 103.795 4.26855C103.795 4.8724 103.658 5.41357 103.385 5.89209C103.123 6.35921 102.781 6.78076 102.359 7.15674C101.949 7.52132 101.493 7.84603 100.992 8.13086C100.491 8.41569 100.012 8.67773 99.5566 8.91699C100.069 9.85124 100.605 10.7627 101.163 11.6514C101.733 12.5286 102.342 13.3888 102.992 14.2319C103.231 13.9357 103.482 13.611 103.744 13.2578C104.017 12.8932 104.262 12.5173 104.479 12.1299C104.695 11.7311 104.872 11.3267 105.008 10.9165C105.156 10.495 105.23 10.0848 105.23 9.68604C105.23 9.51514 105.202 9.34424 105.145 9.17334C105.099 9.00244 105.025 8.84863 104.923 8.71191C104.82 8.5752 104.689 8.46696 104.53 8.38721C104.382 8.29606 104.205 8.25049 104 8.25049V7.77197H109.435V8.25049C109.332 8.25049 109.212 8.26188 109.076 8.28467C108.939 8.30745 108.797 8.33594 108.648 8.37012C108.5 8.4043 108.352 8.45557 108.204 8.52393C108.067 8.58089 107.942 8.65495 107.828 8.74609C107.691 8.86003 107.543 9.01953 107.384 9.22461C107.224 9.42969 107.07 9.65186 106.922 9.89111C106.774 10.119 106.632 10.3468 106.495 10.5747C106.37 10.8026 106.262 10.9963 106.17 11.1558C105.783 11.8394 105.379 12.5002 104.957 13.1382C104.535 13.7762 104.08 14.4028 103.59 15.0181C103.829 15.2801 104.091 15.5535 104.376 15.8384C104.661 16.1232 104.968 16.3853 105.299 16.6245C105.629 16.8524 105.971 17.0461 106.324 17.2056C106.689 17.3537 107.059 17.4277 107.435 17.4277C108.084 17.4277 108.603 17.2682 108.99 16.9492C109.378 16.6188 109.651 16.146 109.811 15.5308L110.272 15.8555ZM102.291 4.23438C102.291 3.93815 102.245 3.65902 102.154 3.39697C102.063 3.13493 101.926 2.90706 101.744 2.71338C101.573 2.51969 101.362 2.36589 101.112 2.25195C100.873 2.12663 100.599 2.06396 100.292 2.06396C99.9725 2.06396 99.6706 2.12663 99.3857 2.25195C99.1123 2.36589 98.873 2.52539 98.668 2.73047C98.4629 2.93555 98.3034 3.1805 98.1895 3.46533C98.0755 3.73877 98.0186 4.04069 98.0186 4.37109C98.0186 4.66732 98.0527 4.98063 98.1211 5.31104C98.1895 5.63005 98.2749 5.94906 98.3774 6.26807C98.48 6.58708 98.5939 6.90039 98.7192 7.20801C98.856 7.51562 98.987 7.80615 99.1123 8.07959C99.5111 7.8973 99.8984 7.68652 100.274 7.44727C100.662 7.19661 101.004 6.91748 101.3 6.60986C101.596 6.29085 101.835 5.93766 102.018 5.55029C102.2 5.15153 102.291 4.71289 102.291 4.23438ZM101.095 16.1631C100.354 15.1605 99.6763 14.175 99.061 13.2065C98.4572 12.2381 97.8647 11.207 97.2837 10.1133C96.8735 10.3411 96.4805 10.5975 96.1045 10.8823C95.7399 11.1672 95.4152 11.4862 95.1304 11.8394C94.8455 12.1925 94.6177 12.5799 94.4468 13.0015C94.2873 13.423 94.2075 13.8844 94.2075 14.3857C94.2075 14.8529 94.2816 15.2972 94.4297 15.7188C94.5892 16.1403 94.8114 16.5106 95.0962 16.8296C95.381 17.1372 95.7228 17.3822 96.1216 17.5645C96.5203 17.7467 96.9647 17.8379 97.4546 17.8379C97.7964 17.8379 98.1268 17.7923 98.4458 17.7012C98.7762 17.5986 99.0952 17.4676 99.4028 17.3081C99.7104 17.1486 100.007 16.972 100.292 16.7783C100.576 16.5732 100.844 16.3682 101.095 16.1631Z" fill="#F77E46"/>
</svg>
