<svg width="20" height="20" viewBox="0 0 20 20" fill="none" xmlns="http://www.w3.org/2000/svg">
<path d="M19.9904 15.78C20.0328 16.1047 19.9339 16.387 19.694 16.627L16.8781 19.4216C16.751 19.5628 16.5852 19.6829 16.3806 19.7816C16.1759 19.8804 15.9748 19.9439 15.7772 19.9721C15.7631 19.9721 15.7207 19.9757 15.6501 19.9828C15.5796 19.9898 15.4879 19.9934 15.3749 19.9934C15.1067 19.9934 14.6726 19.9476 14.0727 19.8558C13.4728 19.764 12.7389 19.5381 11.8709 19.1782C11.0027 18.8183 10.0182 18.2783 8.91722 17.5585C7.81628 16.8388 6.6447 15.8507 5.40257 14.5944C4.41452 13.6204 3.59585 12.6889 2.94655 11.7996C2.29726 10.9104 1.775 10.0882 1.37978 9.33299C0.984525 8.57784 0.688109 7.89326 0.490498 7.27925C0.292887 6.66525 0.158794 6.13593 0.0882191 5.69131C0.0176438 5.24669 -0.0105863 4.89734 0.00352876 4.64327C0.0176438 4.3892 0.0247013 4.24804 0.0247013 4.21981C0.0529315 4.0222 0.116449 3.82106 0.215255 3.6164C0.31406 3.41173 0.434038 3.24588 0.575189 3.11884L3.39114 0.302886C3.58875 0.105275 3.81459 0.00646973 4.06867 0.00646973C4.25216 0.00646973 4.41448 0.0594012 4.55563 0.165264C4.69679 0.271127 4.81676 0.401691 4.91557 0.556957L7.18104 4.85499C7.30807 5.08083 7.34336 5.32785 7.2869 5.59603C7.23044 5.86422 7.11046 6.09006 6.92696 6.27356L5.88951 7.31101C5.86128 7.33924 5.83658 7.38512 5.8154 7.44863C5.79423 7.51215 5.78364 7.56508 5.78364 7.60743C5.8401 7.90384 5.96714 8.24261 6.16475 8.62371C6.33413 8.96247 6.59526 9.37534 6.94814 9.86231C7.30101 10.3493 7.8021 10.9103 8.45139 11.5455C9.08657 12.1949 9.65117 12.6994 10.1452 13.0594C10.6391 13.4192 11.0521 13.684 11.3838 13.8533C11.7155 14.0227 11.9696 14.1251 12.146 14.1602L12.4106 14.2132C12.4388 14.2132 12.4848 14.2026 12.5483 14.1814C12.6118 14.1602 12.6576 14.1356 12.6859 14.1073L13.8927 12.8793C14.1469 12.6535 14.4432 12.5406 14.782 12.5406C15.022 12.5406 15.2125 12.5829 15.3536 12.6676H15.3748L19.461 15.0813C19.7576 15.2649 19.934 15.4977 19.9904 15.78Z" fill="#F77E46"/>
</svg>
