<svg width="20" height="20" viewBox="0 0 20 20" fill="none" xmlns="http://www.w3.org/2000/svg">
<path d="M20 3.79932C19.2639 4.1255 18.474 4.34671 17.6441 4.44546C18.4915 3.93805 19.1401 3.13321 19.4475 2.17713C18.6527 2.64703 17.7754 2.98824 16.8405 3.17321C16.0919 2.37462 15.0271 1.8772 13.8461 1.8772C11.5803 1.8772 9.7431 3.71435 9.7431 5.97893C9.7431 6.3001 9.77934 6.6138 9.84934 6.91376C6.44 6.74252 3.41683 5.10909 1.39346 2.62703C1.03977 3.23194 0.838562 3.93677 0.838562 4.68916C0.838562 6.11265 1.56343 7.36867 2.66323 8.1035C1.99085 8.08102 1.35846 7.89605 0.804836 7.5886V7.63984C0.804836 9.62697 2.21957 11.2854 4.09546 11.6628C3.75176 11.7553 3.38935 11.8066 3.01441 11.8066C2.74948 11.8066 2.49327 11.7803 2.24206 11.7303C2.76444 13.3613 4.27918 14.5473 6.07385 14.5798C4.67036 15.6796 2.90069 16.3332 0.978562 16.3332C0.647385 16.3332 0.321176 16.3132 0 16.277C1.81591 17.443 3.97176 18.1229 6.28882 18.1229C13.8361 18.1229 17.9616 11.8716 17.9616 6.45011L17.9479 5.91896C18.754 5.34403 19.4513 4.62167 20 3.79932Z" fill="white"/>
</svg>
