<svg width="30" height="30" viewBox="0 0 30 30" fill="none" xmlns="http://www.w3.org/2000/svg">
<path d="M27.5 22.5062C27.5 23.1937 26.9425 23.75 26.2562 23.75H16.2437C15.9139 23.75 15.5975 23.6189 15.3643 23.3857C15.131 23.1524 15 22.8361 15 22.5062C15 22.1763 15.131 21.86 15.3643 21.6267C15.5975 21.3935 15.9139 21.2625 16.2437 21.2625H26.2562C26.9437 21.2625 27.5 21.8187 27.5 22.5062Z" fill="#F77E46"/>
<path d="M27.4999 15.0001C27.4999 15.6876 26.9424 16.2438 26.2561 16.2438H3.74363C3.41376 16.2438 3.09741 16.1128 2.86416 15.8796C2.63092 15.6463 2.49988 15.33 2.49988 15.0001C2.49988 14.6702 2.63092 14.3539 2.86416 14.1206C3.09741 13.8874 3.41376 13.7563 3.74363 13.7563H26.2561C26.9436 13.7563 27.4999 14.3138 27.4999 15.0001Z" fill="#F77E46"/>
<path d="M26.2561 8.73774C26.586 8.73774 26.9023 8.60671 27.1356 8.37346C27.3688 8.14021 27.4999 7.82386 27.4999 7.49399C27.4999 7.16413 27.3688 6.84778 27.1356 6.61453C26.9023 6.38128 26.586 6.25024 26.2561 6.25024H11.2436C11.0803 6.25024 10.9186 6.28241 10.7677 6.34492C10.6168 6.40742 10.4797 6.49904 10.3642 6.61453C10.2487 6.73002 10.1571 6.86713 10.0946 7.01803C10.032 7.16893 9.99988 7.33066 9.99988 7.49399C9.99988 7.65733 10.032 7.81906 10.0946 7.96996C10.1571 8.12086 10.2487 8.25797 10.3642 8.37346C10.4797 8.48895 10.6168 8.58057 10.7677 8.64307C10.9186 8.70557 11.0803 8.73774 11.2436 8.73774H26.2561Z" fill="#F77E46"/>
</svg>
